PathFileType	4	(X/Y/Z)	Kaydara	
DataRate	CameraRate	NumFrames	NumMarkers	Units	OrigDataRate	OrigDataStartFrame	OrigNumFrames	
60.00	60.00	4	74	mm	60.00	1377	200	
Frame#	Time	Z_lasi			Z_rasi			Z_rpsi			Z_lpsi			Z_fneck			Z_bneck			Z_fhead			Z_rhead			Z_lhead			Z_rshld			Z_relbtop			Z_relbext			Z_relblow			Z_rwrext			Z_rwrtop			Z_rwrlow			Z_lshld			Z_lelbext			Z_lelblow			Z_lelbtop			Z_lwrext			Z_lwrtop			Z_lwrlow			Z_rtopleg			Z_ltopleg			Z_rkneefr			Z_rkneebk			Z_rkneeis			Z_lkneefr			Z_lknssbk			Z_lkneeis			Z_rankfr			Z_rankis			Z_rankbk			Z_lankfr			Z_lankbk			Z_lankis			A_lasi			A_rasi			A_rpsi			A_lpsi			A_fneck			A_bneck			A_fhead			A_rhead			A_lhead			A_rshld			A_relbtop			A_relbext			A_relblow			A_rwrext			A_rwrtop			A_rwrlow			A_lshld			A_lelbext			A_lelblow			A_lelbtop			A_lwrext			A_lwrtop			A_lwrlow			A_rtopleg			A_ltopleg			A_rkneefr			A_rkneebk			A_rkneeis			A_lkneefr			A_lknssbk			A_lkneeis			A_rankfr			A_rankis			A_rankbk			A_lankfr			A_lankbk			A_lankis			
		X1	Y1	Z1	X2	Y2	Z2	X3	Y3	Z3	X4	Y4	Z4	X5	Y5	Z5	X6	Y6	Z6	X7	Y7	Z7	X8	Y8	Z8	X9	Y9	Z9	X10	Y10	Z10	X11	Y11	Z11	X12	Y12	Z12	X13	Y13	Z13	X14	Y14	Z14	X15	Y15	Z15	X16	Y16	Z16	X17	Y17	Z17	X18	Y18	Z18	X19	Y19	Z19	X20	Y20	Z20	X21	Y21	Z21	X22	Y22	Z22	X23	Y23	Z23	X24	Y24	Z24	X25	Y25	Z25	X26	Y26	Z26	X27	Y27	Z27	X28	Y28	Z28	X29	Y29	Z29	X30	Y30	Z30	X31	Y31	Z31	X32	Y32	Z32	X33	Y33	Z33	X34	Y34	Z34	X35	Y35	Z35	X36	Y36	Z36	X37	Y37	Z37	X38	Y38	Z38	X39	Y39	Z39	X40	Y40	Z40	X41	Y41	Z41	X42	Y42	Z42	X43	Y43	Z43	X44	Y44	Z44	X45	Y45	Z45	X46	Y46	Z46	X47	Y47	Z47	X48	Y48	Z48	X49	Y49	Z49	X50	Y50	Z50	X51	Y51	Z51	X52	Y52	Z52	X53	Y53	Z53	X54	Y54	Z54	X55	Y55	Z55	X56	Y56	Z56	X57	Y57	Z57	X58	Y58	Z58	X59	Y59	Z59	X60	Y60	Z60	X61	Y61	Z61	X62	Y62	Z62	X63	Y63	Z63	X64	Y64	Z64	X65	Y65	Z65	X66	Y66	Z66	X67	Y67	Z67	X68	Y68	Z68	X69	Y69	Z69	X70	Y70	Z70	X71	Y71	Z71	X72	Y72	Z72	X73	Y73	Z73	X74	Y74	Z74	

176	22.933	-253.72042	1074.73701	706.77116	-278.86372	1088.83354	502.77763	-98.79001	1112.91611	446.39992	-62.52747	1094.69254	686.78558	-236.98162	1439.94553	575.44693	-152.18797	1513.19611	635.36560	-255.45189	1632.76871	456.81103	-149.95904	1649.27017	586.94080	-291.70536	1626.00357	623.00850	-148.48571	1439.45038	404.72023	-101.23406	1121.38290	321.64143	-84.52934	1102.60994	378.15075	-172.91166	1130.96542	349.00024	-197.32521	893.75565	306.07563	-235.13454	907.02286	328.24085	-219.24421	901.16447	368.35552	-163.55726	1439.58450	798.86169	-123.06392	1120.67001	805.56641	-199.16725	1138.62259	851.54541	-134.82389	1137.41882	874.62318	-254.62358	881.82838	815.08568	-255.95602	873.70682	861.33621	-209.33172	870.05852	865.47142	-147.25220	925.56778	386.80199	-168.81966	889.05083	751.45653	-237.03335	424.29890	410.60997	-162.13312	453.98758	367.86388	-179.41345	428.12622	490.22133	-203.25939	441.86668	692.44789	-97.70582	470.17937	686.42792	-187.56811	441.75125	600.37308	-199.40962	182.76699	378.73703	-179.71415	174.63758	441.93645	-122.90584	173.50925	375.35908	-132.82086	160.10695	679.68689	-74.83273	165.94465	625.18585	-152.60521	172.61726	609.66396	-964.14474	1030.33562	487.30209	-954.65569	1038.63823	646.13708	-1115.85304	1039.70711	662.66151	-1087.88231	1043.14827	481.29547	-1039.43016	1381.46408	575.47661	-1175.85831	1420.95749	568.29346	-972.61040	1579.25766	588.98113	-1121.36627	1562.48596	673.42499	-1122.22687	1571.46194	510.22995	-1128.76526	1347.75024	749.99916	-1116.18774	1054.78188	782.59377	-1172.64923	1048.64990	750.64629	-1104.21173	1044.04816	725.96565	-1099.98047	808.73375	809.73091	-1055.24582	817.76352	803.97911	-1055.33516	816.87210	765.36194	-1073.85101	1356.57791	396.49010	-1107.57118	1044.30756	373.13198	-1039.33823	1055.80048	399.23481	-1063.77251	1052.15942	350.24773	-995.29198	836.48720	404.82376	-1000.67574	831.54610	364.35856	-957.95921	846.15456	370.76847	-1068.89671	876.28151	745.90614	-1029.00528	890.49385	407.93686	-1030.30113	449.93778	649.64195	-1137.90520	485.36724	695.13756	-1117.58354	485.98713	576.88980	-1012.09976	461.85165	516.92558	-1095.60448	480.27283	419.84718	-1119.90463	477.88189	543.86642	-1100.38078	165.25185	667.53822	-1133.50418	163.05777	601.78055	-1181.94595	152.85671	670.69633	-1067.13875	166.26110	459.56764	-1127.77748	168.60605	423.47736	-1127.40967	172.62850	512.96581 
177	22.950	-253.34732	1074.58946	707.49016	-278.70600	1088.83797	503.70773	-98.10717	1112.92931	447.60803	-62.68564	1094.70123	688.22784	-237.05410	1439.92203	576.82098	-152.24792	1513.19031	636.67431	-256.24111	1632.90848	458.77918	-150.12430	1649.25568	588.44189	-291.89295	1625.76553	625.14862	-148.16783	1439.57809	405.98419	-100.13000	1121.54968	323.12172	-83.69601	1102.79877	379.64775	-171.98582	1130.94360	350.16319	-195.60434	893.57246	307.14518	-233.59150	906.85120	328.95306	-218.03188	901.08185	369.23309	-164.13265	1439.63837	800.17807	-125.56417	1120.40886	807.64275	-201.53645	1139.05876	853.43887	-136.98739	1137.44972	876.44310	-259.64716	882.91847	817.77840	-260.58401	874.82361	863.85231	-213.84754	870.68810	868.42323	-146.58678	925.56877	387.98813	-168.89462	888.87169	752.72774	-236.84618	424.40590	411.15623	-161.80622	454.09077	368.52524	-179.51632	428.07156	491.00834	-202.97855	441.81416	692.81181	-97.62020	470.09277	687.26524	-187.20102	441.81564	600.84560	-199.32590	182.87539	378.97640	-179.87623	174.67512	442.25246	-122.83899	173.56922	375.64907	-133.09533	160.18707	680.16701	-74.76863	165.88972	625.49206	-152.38235	172.63077	609.86626	-963.93814	1030.24200	487.32464	-954.43520	1038.74802	646.23352	-1115.45235	1039.72809	662.86827	-1087.78740	1042.93716	481.38805	-1039.27170	1381.45325	575.14420	-1175.77782	1420.57785	567.69283	-972.88452	1579.51019	588.81004	-1121.83334	1562.26379	672.91702	-1122.29118	1571.16989	509.81705	-1128.73695	1347.77161	749.64859	-1115.83778	1054.81102	782.43431	-1172.37190	1048.61214	750.51476	-1103.59550	1044.11301	726.42982	-1099.60442	808.80219	809.81606	-1054.79309	817.92595	804.08943	-1054.94476	816.97418	765.51979	-1073.79906	1356.15799	396.16055	-1108.02879	1044.10599	373.35739	-1039.78455	1055.20958	399.25774	-1064.31335	1051.76407	350.36003	-995.46005	836.37543	404.54472	-1002.84531	830.83359	364.76742	-959.78622	845.10399	369.26895	-1068.26302	876.71417	746.55479	-1029.29146	890.53642	408.01121	-1029.86031	449.93683	649.86198	-1137.43721	485.40451	695.27527	-1116.92680	485.99075	577.09785	-1011.93993	461.70990	517.10827	-1095.45349	480.26825	419.99565	-1119.57237	477.83108	544.16996	-1100.38170	165.23682	667.81548	-1133.32001	163.10469	602.10911	-1181.97533	152.98359	670.83412	-1067.08351	166.19730	459.60121	-1127.76047	168.61883	423.55984	-1127.32285	172.61374	513.03680 
178	22.967	-253.99609	1074.54834	708.81920	-278.61338	1088.81516	504.80560	-97.97636	1113.00209	449.01699	-62.69812	1094.67514	689.57985	-237.19158	1439.83276	578.40881	-152.28907	1513.15353	638.10383	-257.37799	1632.92999	460.94688	-150.85157	1649.03595	590.17021	-291.90653	1625.57404	627.51068	-148.08119	1439.64264	407.36076	-99.27792	1121.73012	324.51126	-83.01806	1102.91603	381.09825	-171.30093	1130.99953	351.37054	-194.09760	893.49472	308.26925	-232.30068	906.77269	329.71390	-217.10318	901.05492	370.11955	-164.70898	1439.68109	801.53976	-128.10740	1120.15884	809.57840	-203.80451	1139.52820	855.38651	-139.21468	1137.48047	878.44009	-263.98626	883.89114	820.41367	-264.95306	875.90118	866.62773	-218.12197	871.17554	871.04050	-146.14702	925.55984	389.24751	-169.22749	888.86414	753.96957	-236.55945	424.46114	411.70723	-161.51802	454.13170	369.16752	-179.34351	428.07419	491.56822	-202.73138	441.81770	693.38455	-97.37589	470.06599	687.82028	-186.84326	441.88698	601.36848	-199.30643	183.01476	379.16206	-179.84331	174.63970	442.46956	-122.80255	173.62818	375.91766	-133.17245	160.17010	680.46288	-74.60941	165.88421	625.66509	-152.17677	172.57875	610.05024	-963.78670	1030.16640	487.32769	-954.07051	1038.98338	646.43600	-1115.01541	1039.71130	663.13309	-1087.71812	1042.80411	481.55449	-1039.14932	1381.43921	574.82269	-1175.79247	1420.18112	567.21886	-973.13660	1579.74213	588.49648	-1122.23129	1562.14447	672.22130	-1122.37015	1570.87570	509.21291	-1128.57895	1347.78275	749.41368	-1115.48721	1054.86313	782.30942	-1172.02408	1048.56483	750.35851	-1102.75009	1044.21730	727.32269	-1099.16504	808.82988	809.82872	-1054.34898	817.94769	804.17572	-1054.61121	817.13730	765.61569	-1073.88351	1355.72266	395.81528	-1108.39859	1043.82118	373.72414	-1039.98718	1054.64493	398.97984	-1064.83009	1051.34254	350.35301	-995.31448	836.27487	403.52589	-1004.54308	830.05264	364.62471	-961.41373	844.14406	366.84814	-1067.80701	876.90056	746.90231	-1029.45740	890.78041	408.74825	-1029.30664	449.98714	650.31380	-1137.06955	485.51399	695.43541	-1116.39999	486.06102	577.23003	-1011.65276	461.71898	517.16167	-1095.32433	480.31204	420.19859	-1119.24721	477.80003	544.39308	-1100.29160	165.32957	668.04688	-1133.11020	163.14358	602.41905	-1182.04140	153.12001	671.03653	-1067.00928	166.15553	459.54094	-1127.78198	168.67638	423.63174	-1127.19284	172.60185	513.09742 
179	22.983	-254.12174	1074.41971	710.04250	-278.54061	1088.68736	505.92670	-97.29474	1113.00774	450.13363	-62.81682	1094.68124	690.88577	-237.44131	1439.79858	579.99966	-152.18386	1513.10364	639.41406	-258.76684	1632.96295	463.26893	-150.90164	1648.94196	591.57341	-292.04136	1625.23193	630.01637	-148.02938	1439.71420	408.63998	-98.66144	1121.85883	325.93861	-82.48947	1103.12485	382.43855	-170.67175	1131.06873	352.60593	-192.99093	893.42598	309.43701	-231.49790	906.74049	330.36919	-216.40619	900.99388	371.22452	-165.05421	1439.66354	803.01521	-130.31891	1119.91539	811.43631	-205.78953	1140.13451	857.39510	-141.26265	1137.47505	880.32097	-268.41009	884.95010	822.97066	-269.43302	877.00554	869.16985	-221.75974	872.02271	873.29178	-145.73019	925.56114	390.53375	-168.87104	888.64769	755.00275	-236.37047	424.51054	412.10926	-161.25683	454.17889	369.85348	-179.08667	427.97478	492.04197	-202.68333	441.75125	693.81020	-97.29231	469.93626	688.58124	-186.65812	441.90407	601.91944	-199.26973	183.12019	379.37462	-179.76166	174.60148	442.64580	-122.80384	173.71061	376.17588	-132.92003	159.99362	680.44090	-74.60069	165.86714	625.89054	-152.12077	172.58778	610.21999	-963.68095	1030.13008	487.33833	-953.83186	1039.05205	646.47842	-1114.51042	1039.72168	663.48129	-1087.65808	1042.70569	481.84937	-1039.03511	1381.36017	574.54533	-1175.74806	1419.80789	566.72276	-973.33824	1579.90875	588.03970	-1122.65900	1562.10922	671.58783	-1122.43248	1570.54214	508.51734	-1128.31207	1347.81296	749.24644	-1115.05974	1054.88243	782.24411	-1171.62628	1048.54736	750.27779	-1102.41692	1044.10370	727.05612	-1098.74245	808.80890	809.87335	-1054.26216	817.98225	804.55643	-1054.35608	817.12151	765.67062	-1074.22417	1355.29892	395.49877	-1108.45375	1043.58116	374.07261	-1039.82445	1054.23584	398.39119	-1065.17365	1051.06194	350.14961	-994.80019	836.28380	401.99867	-1005.83694	829.34677	363.89679	-962.70805	843.32825	363.99593	-1066.80313	877.23770	747.96570	-1028.84094	890.47943	408.49598	-1028.86536	449.97730	650.63293	-1136.57516	485.59357	695.65186	-1115.86594	486.08677	577.52335	-1011.48514	461.69247	517.22313	-1095.22652	480.38059	420.43381	-1118.98811	477.82856	544.59946	-1100.24353	165.34328	668.40912	-1132.96196	163.20564	602.64912	-1181.92451	153.31514	671.28540	-1066.97838	166.21094	459.50024	-1127.82143	168.72746	423.72021	-1127.07764	172.63222	513.17467 
